<svg width="1346pt" height="208pt" viewBox="0.00 0.00 1346.00 208.00" xmlns="http://www.w3.org/2000/svg" xmlns:xlink="http://www.w3.org/1999/xlink">
<g id="graph0" class="graph" transform="scale(1 1) rotate(0) translate(4 204.4)">
<title>ElbenOrk</title>
<polygon fill="white" stroke="none" points="-4,4 -4,-204.4 1341.96,-204.4 1341.96,4 -4,4"/>
<!-- L:E3 O3\nR:E0 O0\nP:L -->
<g id="node1" class="node">
<title>L:E3 O3\nR:E0 O0\nP:L</title>
<path fill="none" stroke="black" d="M57.69,-124.4C57.69,-124.4 12,-124.4 12,-124.4 6,-124.4 0,-118.4 0,-112.4 0,-112.4 0,-78 0,-78 0,-72 6,-66 12,-66 12,-66 57.69,-66 57.69,-66 63.69,-66 69.69,-72 69.69,-78 69.69,-78 69.69,-112.4 69.69,-112.4 69.69,-118.4 63.69,-124.4 57.69,-124.4"/>
<text xml:space="preserve" text-anchor="middle" x="34.84" y="-107.8" font-family="Helvetica,sans-Serif" font-size="14.00">L:E3 O3</text>
<text xml:space="preserve" text-anchor="middle" x="34.84" y="-91" font-family="Helvetica,sans-Serif" font-size="14.00">R:E0 O0</text>
<text xml:space="preserve" text-anchor="middle" x="34.84" y="-74.2" font-family="Helvetica,sans-Serif" font-size="14.00">P:L</text>
</g>
<!-- L:E3 O2\nR:E0 O1\nP:R -->
<g id="node2" class="node">
<title>L:E3 O2\nR:E0 O1\nP:R</title>
<path fill="none" stroke="black" d="M163.38,-200.4C163.38,-200.4 117.69,-200.4 117.69,-200.4 111.69,-200.4 105.69,-194.4 105.69,-188.4 105.69,-188.4 105.69,-154 105.69,-154 105.69,-148 111.69,-142 117.69,-142 117.69,-142 163.38,-142 163.38,-142 169.38,-142 175.38,-148 175.38,-154 175.38,-154 175.38,-188.4 175.38,-188.4 175.38,-194.4 169.38,-200.4 163.38,-200.4"/>
<text xml:space="preserve" text-anchor="middle" x="140.53" y="-183.8" font-family="Helvetica,sans-Serif" font-size="14.00">L:E3 O2</text>
<text xml:space="preserve" text-anchor="middle" x="140.53" y="-167" font-family="Helvetica,sans-Serif" font-size="14.00">R:E0 O1</text>
<text xml:space="preserve" text-anchor="middle" x="140.53" y="-150.2" font-family="Helvetica,sans-Serif" font-size="14.00">P:R</text>
</g>
<!-- L:E3 O3\nR:E0 O0\nP:L&#45;&gt;L:E3 O2\nR:E0 O1\nP:R -->
<g id="edge1" class="edge">
<title>L:E3 O3\nR:E0 O0\nP:L-&gt;L:E3 O2\nR:E0 O1\nP:R</title>
<path fill="none" stroke="black" d="M70.08,-113.9C79.29,-120.26 89.34,-127.56 98.86,-134.78"/>
<polygon fill="black" stroke="black" points="96.53,-137.4 106.59,-140.73 100.8,-131.86 96.53,-137.4"/>
</g>
<!-- L:E3 O1\nR:E0 O2\nP:R -->
<g id="node3" class="node">
<title>L:E3 O1\nR:E0 O2\nP:R</title>
<path fill="none" stroke="black" d="M163.38,-124.4C163.38,-124.4 117.69,-124.4 117.69,-124.4 111.69,-124.4 105.69,-118.4 105.69,-112.4 105.69,-112.4 105.69,-78 105.69,-78 105.69,-72 111.69,-66 117.69,-66 117.69,-66 163.38,-66 163.38,-66 169.38,-66 175.38,-72 175.38,-78 175.38,-78 175.38,-112.4 175.38,-112.4 175.38,-118.4 169.38,-124.4 163.38,-124.4"/>
<text xml:space="preserve" text-anchor="middle" x="140.53" y="-107.8" font-family="Helvetica,sans-Serif" font-size="14.00">L:E3 O1</text>
<text xml:space="preserve" text-anchor="middle" x="140.53" y="-91" font-family="Helvetica,sans-Serif" font-size="14.00">R:E0 O2</text>
<text xml:space="preserve" text-anchor="middle" x="140.53" y="-74.2" font-family="Helvetica,sans-Serif" font-size="14.00">P:R</text>
</g>
<!-- L:E3 O3\nR:E0 O0\nP:L&#45;&gt;L:E3 O1\nR:E0 O2\nP:R -->
<g id="edge2" class="edge">
<title>L:E3 O3\nR:E0 O0\nP:L-&gt;L:E3 O1\nR:E0 O2\nP:R</title>
<path fill="none" stroke="black" d="M70.08,-88.81C77.69,-88.49 85.88,-88.38 93.86,-88.49"/>
<polygon fill="black" stroke="black" points="93.72,-91.99 103.82,-88.77 93.92,-84.99 93.72,-91.99"/>
</g>
<!-- L:E2 O2\nR:E1 O1\nP:R -->
<g id="node4" class="node">
<title>L:E2 O2\nR:E1 O1\nP:R</title>
<path fill="none" stroke="black" d="M374.76,-58.4C374.76,-58.4 329.07,-58.4 329.07,-58.4 323.07,-58.4 317.07,-52.4 317.07,-46.4 317.07,-46.4 317.07,-12 317.07,-12 317.07,-6 323.07,0 329.07,0 329.07,0 374.76,0 374.76,0 380.76,0 386.76,-6 386.76,-12 386.76,-12 386.76,-46.4 386.76,-46.4 386.76,-52.4 380.76,-58.4 374.76,-58.4"/>
<text xml:space="preserve" text-anchor="middle" x="351.91" y="-41.8" font-family="Helvetica,sans-Serif" font-size="14.00">L:E2 O2</text>
<text xml:space="preserve" text-anchor="middle" x="351.91" y="-25" font-family="Helvetica,sans-Serif" font-size="14.00">R:E1 O1</text>
<text xml:space="preserve" text-anchor="middle" x="351.91" y="-8.2" font-family="Helvetica,sans-Serif" font-size="14.00">P:R</text>
</g>
<!-- L:E3 O3\nR:E0 O0\nP:L&#45;&gt;L:E2 O2\nR:E1 O1\nP:R -->
<g id="edge3" class="edge">
<title>L:E3 O3\nR:E0 O0\nP:L-&gt;L:E2 O2\nR:E1 O1\nP:R</title>
<path fill="none" stroke="black" d="M68.43,-65.59C79.8,-58.67 92.92,-52.23 105.69,-48.2 173.02,-26.93 255.28,-21.44 305.35,-22.63"/>
<polygon fill="black" stroke="black" points="305.11,-26.12 315.23,-22.99 305.37,-19.13 305.11,-26.12"/>
</g>
<!-- L:E3 O2\nR:E0 O1\nP:R&#45;&gt;L:E3 O3\nR:E0 O0\nP:L -->
<g id="edge4" class="edge">
<title>L:E3 O2\nR:E0 O1\nP:R-&gt;L:E3 O3\nR:E0 O0\nP:L</title>
<path fill="none" stroke="black" d="M105.53,-152.66C96.26,-146.26 86.12,-138.9 76.52,-131.62"/>
<polygon fill="black" stroke="black" points="78.78,-128.94 68.72,-125.61 74.5,-134.49 78.78,-128.94"/>
</g>
<!-- L:E3 O1\nR:E0 O2\nP:R&#45;&gt;L:E3 O3\nR:E0 O0\nP:L -->
<g id="edge6" class="edge">
<title>L:E3 O1\nR:E0 O2\nP:R-&gt;L:E3 O3\nR:E0 O0\nP:L</title>
<path fill="none" stroke="black" d="M105.33,-101.59C97.72,-101.91 89.54,-102.02 81.55,-101.91"/>
<polygon fill="black" stroke="black" points="81.69,-98.41 71.6,-101.63 81.5,-105.41 81.69,-98.41"/>
</g>
<!-- L:E3 O2\nR:E0 O1\nP:L -->
<g id="node5" class="node">
<title>L:E3 O2\nR:E0 O1\nP:L</title>
<path fill="none" stroke="black" d="M269.07,-124.4C269.07,-124.4 223.38,-124.4 223.38,-124.4 217.38,-124.4 211.38,-118.4 211.38,-112.4 211.38,-112.4 211.38,-78 211.38,-78 211.38,-72 217.38,-66 223.38,-66 223.38,-66 269.07,-66 269.07,-66 275.07,-66 281.07,-72 281.07,-78 281.07,-78 281.07,-112.4 281.07,-112.4 281.07,-118.4 275.07,-124.4 269.07,-124.4"/>
<text xml:space="preserve" text-anchor="middle" x="246.22" y="-107.8" font-family="Helvetica,sans-Serif" font-size="14.00">L:E3 O2</text>
<text xml:space="preserve" text-anchor="middle" x="246.22" y="-91" font-family="Helvetica,sans-Serif" font-size="14.00">R:E0 O1</text>
<text xml:space="preserve" text-anchor="middle" x="246.22" y="-74.2" font-family="Helvetica,sans-Serif" font-size="14.00">P:L</text>
</g>
<!-- L:E3 O1\nR:E0 O2\nP:R&#45;&gt;L:E3 O2\nR:E0 O1\nP:L -->
<g id="edge5" class="edge">
<title>L:E3 O1\nR:E0 O2\nP:R-&gt;L:E3 O2\nR:E0 O1\nP:L</title>
<path fill="none" stroke="black" d="M175.77,-88.81C183.38,-88.49 191.57,-88.38 199.55,-88.49"/>
<polygon fill="black" stroke="black" points="199.41,-91.99 209.51,-88.77 199.61,-84.99 199.41,-91.99"/>
</g>
<!-- L:E2 O2\nR:E1 O1\nP:R&#45;&gt;L:E3 O3\nR:E0 O0\nP:L -->
<g id="edge8" class="edge">
<title>L:E2 O2\nR:E1 O1\nP:R-&gt;L:E3 O3\nR:E0 O0\nP:L</title>
<path fill="none" stroke="black" d="M316.75,-34.99C268.57,-38.66 178.42,-43.22 105.69,-66.2 97.08,-68.92 88.31,-72.73 80.03,-76.74"/>
<polygon fill="black" stroke="black" points="78.55,-73.57 71.2,-81.19 81.7,-79.82 78.55,-73.57"/>
</g>
<!-- L:E2 O2\nR:E1 O1\nP:R&#45;&gt;L:E3 O2\nR:E0 O1\nP:L -->
<g id="edge7" class="edge">
<title>L:E2 O2\nR:E1 O1\nP:R-&gt;L:E3 O2\nR:E0 O1\nP:L</title>
<path fill="none" stroke="black" d="M316.71,-57.36C308.57,-62.89 299.77,-68.58 291.26,-73.85"/>
<polygon fill="black" stroke="black" points="289.49,-70.83 282.76,-79.01 293.12,-76.82 289.49,-70.83"/>
</g>
<!-- L:E3 O2\nR:E0 O1\nP:L&#45;&gt;L:E3 O1\nR:E0 O2\nP:R -->
<g id="edge10" class="edge">
<title>L:E3 O2\nR:E0 O1\nP:L-&gt;L:E3 O1\nR:E0 O2\nP:R</title>
<path fill="none" stroke="black" d="M211.02,-101.59C203.41,-101.91 195.23,-102.02 187.24,-101.91"/>
<polygon fill="black" stroke="black" points="187.38,-98.41 177.29,-101.63 187.19,-105.41 187.38,-98.41"/>
</g>
<!-- L:E3 O2\nR:E0 O1\nP:L&#45;&gt;L:E2 O2\nR:E1 O1\nP:R -->
<g id="edge9" class="edge">
<title>L:E3 O2\nR:E0 O1\nP:L-&gt;L:E2 O2\nR:E1 O1\nP:R</title>
<path fill="none" stroke="black" d="M281.46,-67.01C289.6,-61.49 298.4,-55.79 306.91,-50.53"/>
<polygon fill="black" stroke="black" points="308.68,-53.55 315.42,-45.37 305.05,-47.56 308.68,-53.55"/>
</g>
<!-- L:E3 O0\nR:E0 O3\nP:R -->
<g id="node6" class="node">
<title>L:E3 O0\nR:E0 O3\nP:R</title>
<path fill="none" stroke="black" d="M374.76,-134.4C374.76,-134.4 329.07,-134.4 329.07,-134.4 323.07,-134.4 317.07,-128.4 317.07,-122.4 317.07,-122.4 317.07,-88 317.07,-88 317.07,-82 323.07,-76 329.07,-76 329.07,-76 374.76,-76 374.76,-76 380.76,-76 386.76,-82 386.76,-88 386.76,-88 386.76,-122.4 386.76,-122.4 386.76,-128.4 380.76,-134.4 374.76,-134.4"/>
<text xml:space="preserve" text-anchor="middle" x="351.91" y="-117.8" font-family="Helvetica,sans-Serif" font-size="14.00">L:E3 O0</text>
<text xml:space="preserve" text-anchor="middle" x="351.91" y="-101" font-family="Helvetica,sans-Serif" font-size="14.00">R:E0 O3</text>
<text xml:space="preserve" text-anchor="middle" x="351.91" y="-84.2" font-family="Helvetica,sans-Serif" font-size="14.00">P:R</text>
</g>
<!-- L:E3 O2\nR:E0 O1\nP:L&#45;&gt;L:E3 O0\nR:E0 O3\nP:R -->
<g id="edge11" class="edge">
<title>L:E3 O2\nR:E0 O1\nP:L-&gt;L:E3 O0\nR:E0 O3\nP:R</title>
<path fill="none" stroke="black" d="M281.46,-92.11C289.16,-92.53 297.45,-93.22 305.52,-94.12"/>
<polygon fill="black" stroke="black" points="304.85,-97.56 315.21,-95.32 305.72,-90.62 304.85,-97.56"/>
</g>
<!-- L:E3 O0\nR:E0 O3\nP:R&#45;&gt;L:E3 O2\nR:E0 O1\nP:L -->
<g id="edge13" class="edge">
<title>L:E3 O0\nR:E0 O3\nP:R-&gt;L:E3 O2\nR:E0 O1\nP:L</title>
<path fill="none" stroke="black" d="M316.71,-108.29C309.01,-107.88 300.73,-107.18 292.65,-106.29"/>
<polygon fill="black" stroke="black" points="293.32,-102.84 282.96,-105.08 292.46,-109.79 293.32,-102.84"/>
</g>
<!-- L:E3 O1\nR:E0 O2\nP:L -->
<g id="node7" class="node">
<title>L:E3 O1\nR:E0 O2\nP:L</title>
<path fill="none" stroke="black" d="M480.45,-134.4C480.45,-134.4 434.76,-134.4 434.76,-134.4 428.76,-134.4 422.76,-128.4 422.76,-122.4 422.76,-122.4 422.76,-88 422.76,-88 422.76,-82 428.76,-76 434.76,-76 434.76,-76 480.45,-76 480.45,-76 486.45,-76 492.45,-82 492.45,-88 492.45,-88 492.45,-122.4 492.45,-122.4 492.45,-128.4 486.45,-134.4 480.45,-134.4"/>
<text xml:space="preserve" text-anchor="middle" x="457.6" y="-117.8" font-family="Helvetica,sans-Serif" font-size="14.00">L:E3 O1</text>
<text xml:space="preserve" text-anchor="middle" x="457.6" y="-101" font-family="Helvetica,sans-Serif" font-size="14.00">R:E0 O2</text>
<text xml:space="preserve" text-anchor="middle" x="457.6" y="-84.2" font-family="Helvetica,sans-Serif" font-size="14.00">P:L</text>
</g>
<!-- L:E3 O0\nR:E0 O3\nP:R&#45;&gt;L:E3 O1\nR:E0 O2\nP:L -->
<g id="edge12" class="edge">
<title>L:E3 O0\nR:E0 O3\nP:R-&gt;L:E3 O1\nR:E0 O2\nP:L</title>
<path fill="none" stroke="black" d="M387.15,-98.81C394.76,-98.49 402.95,-98.38 410.93,-98.49"/>
<polygon fill="black" stroke="black" points="410.79,-101.99 420.89,-98.77 410.99,-94.99 410.79,-101.99"/>
</g>
<!-- L:E3 O1\nR:E0 O2\nP:L&#45;&gt;L:E3 O0\nR:E0 O3\nP:R -->
<g id="edge15" class="edge">
<title>L:E3 O1\nR:E0 O2\nP:L-&gt;L:E3 O0\nR:E0 O3\nP:R</title>
<path fill="none" stroke="black" d="M422.4,-111.59C414.79,-111.91 406.61,-112.02 398.62,-111.91"/>
<polygon fill="black" stroke="black" points="398.76,-108.41 388.67,-111.63 398.56,-115.41 398.76,-108.41"/>
</g>
<!-- L:E1 O1\nR:E2 O2\nP:R -->
<g id="node8" class="node">
<title>L:E1 O1\nR:E2 O2\nP:R</title>
<path fill="none" stroke="black" d="M586.14,-134.4C586.14,-134.4 540.45,-134.4 540.45,-134.4 534.45,-134.4 528.45,-128.4 528.45,-122.4 528.45,-122.4 528.45,-88 528.45,-88 528.45,-82 534.45,-76 540.45,-76 540.45,-76 586.14,-76 586.14,-76 592.14,-76 598.14,-82 598.14,-88 598.14,-88 598.14,-122.4 598.14,-122.4 598.14,-128.4 592.14,-134.4 586.14,-134.4"/>
<text xml:space="preserve" text-anchor="middle" x="563.29" y="-117.8" font-family="Helvetica,sans-Serif" font-size="14.00">L:E1 O1</text>
<text xml:space="preserve" text-anchor="middle" x="563.29" y="-101" font-family="Helvetica,sans-Serif" font-size="14.00">R:E2 O2</text>
<text xml:space="preserve" text-anchor="middle" x="563.29" y="-84.2" font-family="Helvetica,sans-Serif" font-size="14.00">P:R</text>
</g>
<!-- L:E3 O1\nR:E0 O2\nP:L&#45;&gt;L:E1 O1\nR:E2 O2\nP:R -->
<g id="edge14" class="edge">
<title>L:E3 O1\nR:E0 O2\nP:L-&gt;L:E1 O1\nR:E2 O2\nP:R</title>
<path fill="none" stroke="black" d="M492.84,-98.81C500.45,-98.49 508.64,-98.38 516.62,-98.49"/>
<polygon fill="black" stroke="black" points="516.48,-101.99 526.58,-98.77 516.68,-94.99 516.48,-101.99"/>
</g>
<!-- L:E1 O1\nR:E2 O2\nP:R&#45;&gt;L:E3 O1\nR:E0 O2\nP:L -->
<g id="edge16" class="edge">
<title>L:E1 O1\nR:E2 O2\nP:R-&gt;L:E3 O1\nR:E0 O2\nP:L</title>
<path fill="none" stroke="black" d="M528.09,-111.59C520.48,-111.91 512.3,-112.02 504.31,-111.91"/>
<polygon fill="black" stroke="black" points="504.45,-108.41 494.35,-111.63 504.25,-115.41 504.45,-108.41"/>
</g>
<!-- L:E2 O2\nR:E1 O1\nP:L -->
<g id="node9" class="node">
<title>L:E2 O2\nR:E1 O1\nP:L</title>
<path fill="none" stroke="black" d="M691.83,-134.4C691.83,-134.4 646.14,-134.4 646.14,-134.4 640.14,-134.4 634.14,-128.4 634.14,-122.4 634.14,-122.4 634.14,-88 634.14,-88 634.14,-82 640.14,-76 646.14,-76 646.14,-76 691.83,-76 691.83,-76 697.83,-76 703.83,-82 703.83,-88 703.83,-88 703.83,-122.4 703.83,-122.4 703.83,-128.4 697.83,-134.4 691.83,-134.4"/>
<text xml:space="preserve" text-anchor="middle" x="668.98" y="-117.8" font-family="Helvetica,sans-Serif" font-size="14.00">L:E2 O2</text>
<text xml:space="preserve" text-anchor="middle" x="668.98" y="-101" font-family="Helvetica,sans-Serif" font-size="14.00">R:E1 O1</text>
<text xml:space="preserve" text-anchor="middle" x="668.98" y="-84.2" font-family="Helvetica,sans-Serif" font-size="14.00">P:L</text>
</g>
<!-- L:E1 O1\nR:E2 O2\nP:R&#45;&gt;L:E2 O2\nR:E1 O1\nP:L -->
<g id="edge17" class="edge">
<title>L:E1 O1\nR:E2 O2\nP:R-&gt;L:E2 O2\nR:E1 O1\nP:L</title>
<path fill="none" stroke="black" d="M598.53,-98.81C606.14,-98.49 614.32,-98.38 622.31,-98.49"/>
<polygon fill="black" stroke="black" points="622.17,-101.99 632.27,-98.77 622.37,-94.99 622.17,-101.99"/>
</g>
<!-- L:E2 O2\nR:E1 O1\nP:L&#45;&gt;L:E1 O1\nR:E2 O2\nP:R -->
<g id="edge19" class="edge">
<title>L:E2 O2\nR:E1 O1\nP:L-&gt;L:E1 O1\nR:E2 O2\nP:R</title>
<path fill="none" stroke="black" d="M633.78,-111.59C626.17,-111.91 617.99,-112.02 610,-111.91"/>
<polygon fill="black" stroke="black" points="610.14,-108.41 600.04,-111.63 609.94,-115.41 610.14,-108.41"/>
</g>
<!-- L:E0 O2\nR:E3 O1\nP:R -->
<g id="node10" class="node">
<title>L:E0 O2\nR:E3 O1\nP:R</title>
<path fill="none" stroke="black" d="M797.52,-134.4C797.52,-134.4 751.83,-134.4 751.83,-134.4 745.83,-134.4 739.83,-128.4 739.83,-122.4 739.83,-122.4 739.83,-88 739.83,-88 739.83,-82 745.83,-76 751.83,-76 751.83,-76 797.52,-76 797.52,-76 803.52,-76 809.52,-82 809.52,-88 809.52,-88 809.52,-122.4 809.52,-122.4 809.52,-128.4 803.52,-134.4 797.52,-134.4"/>
<text xml:space="preserve" text-anchor="middle" x="774.67" y="-117.8" font-family="Helvetica,sans-Serif" font-size="14.00">L:E0 O2</text>
<text xml:space="preserve" text-anchor="middle" x="774.67" y="-101" font-family="Helvetica,sans-Serif" font-size="14.00">R:E3 O1</text>
<text xml:space="preserve" text-anchor="middle" x="774.67" y="-84.2" font-family="Helvetica,sans-Serif" font-size="14.00">P:R</text>
</g>
<!-- L:E2 O2\nR:E1 O1\nP:L&#45;&gt;L:E0 O2\nR:E3 O1\nP:R -->
<g id="edge18" class="edge">
<title>L:E2 O2\nR:E1 O1\nP:L-&gt;L:E0 O2\nR:E3 O1\nP:R</title>
<path fill="none" stroke="black" d="M704.22,-98.81C711.83,-98.49 720.01,-98.38 728,-98.49"/>
<polygon fill="black" stroke="black" points="727.86,-101.99 737.95,-98.77 728.06,-94.99 727.86,-101.99"/>
</g>
<!-- L:E0 O2\nR:E3 O1\nP:R&#45;&gt;L:E2 O2\nR:E1 O1\nP:L -->
<g id="edge20" class="edge">
<title>L:E0 O2\nR:E3 O1\nP:R-&gt;L:E2 O2\nR:E1 O1\nP:L</title>
<path fill="none" stroke="black" d="M739.47,-111.59C731.86,-111.91 723.68,-112.02 715.69,-111.91"/>
<polygon fill="black" stroke="black" points="715.83,-108.41 705.73,-111.63 715.63,-115.41 715.83,-108.41"/>
</g>
<!-- L:E0 O3\nR:E3 O0\nP:L -->
<g id="node11" class="node">
<title>L:E0 O3\nR:E3 O0\nP:L</title>
<path fill="none" stroke="black" d="M903.21,-134.4C903.21,-134.4 857.52,-134.4 857.52,-134.4 851.52,-134.4 845.52,-128.4 845.52,-122.4 845.52,-122.4 845.52,-88 845.52,-88 845.52,-82 851.52,-76 857.52,-76 857.52,-76 903.21,-76 903.21,-76 909.21,-76 915.21,-82 915.21,-88 915.21,-88 915.21,-122.4 915.21,-122.4 915.21,-128.4 909.21,-134.4 903.21,-134.4"/>
<text xml:space="preserve" text-anchor="middle" x="880.36" y="-117.8" font-family="Helvetica,sans-Serif" font-size="14.00">L:E0 O3</text>
<text xml:space="preserve" text-anchor="middle" x="880.36" y="-101" font-family="Helvetica,sans-Serif" font-size="14.00">R:E3 O0</text>
<text xml:space="preserve" text-anchor="middle" x="880.36" y="-84.2" font-family="Helvetica,sans-Serif" font-size="14.00">P:L</text>
</g>
<!-- L:E0 O2\nR:E3 O1\nP:R&#45;&gt;L:E0 O3\nR:E3 O0\nP:L -->
<g id="edge21" class="edge">
<title>L:E0 O2\nR:E3 O1\nP:R-&gt;L:E0 O3\nR:E3 O0\nP:L</title>
<path fill="none" stroke="black" d="M809.91,-98.81C817.52,-98.49 825.7,-98.38 833.69,-98.49"/>
<polygon fill="black" stroke="black" points="833.55,-101.99 843.64,-98.77 833.74,-94.99 833.55,-101.99"/>
</g>
<!-- L:E0 O3\nR:E3 O0\nP:L&#45;&gt;L:E0 O2\nR:E3 O1\nP:R -->
<g id="edge22" class="edge">
<title>L:E0 O3\nR:E3 O0\nP:L-&gt;L:E0 O2\nR:E3 O1\nP:R</title>
<path fill="none" stroke="black" d="M845.16,-111.59C837.55,-111.91 829.37,-112.02 821.38,-111.91"/>
<polygon fill="black" stroke="black" points="821.52,-108.41 811.42,-111.63 821.32,-115.41 821.52,-108.41"/>
</g>
<!-- L:E0 O1\nR:E3 O2\nP:R -->
<g id="node12" class="node">
<title>L:E0 O1\nR:E3 O2\nP:R</title>
<path fill="none" stroke="black" d="M1008.89,-134.4C1008.89,-134.4 963.21,-134.4 963.21,-134.4 957.21,-134.4 951.21,-128.4 951.21,-122.4 951.21,-122.4 951.21,-88 951.21,-88 951.21,-82 957.21,-76 963.21,-76 963.21,-76 1008.89,-76 1008.89,-76 1014.89,-76 1020.89,-82 1020.89,-88 1020.89,-88 1020.89,-122.4 1020.89,-122.4 1020.89,-128.4 1014.89,-134.4 1008.89,-134.4"/>
<text xml:space="preserve" text-anchor="middle" x="986.05" y="-117.8" font-family="Helvetica,sans-Serif" font-size="14.00">L:E0 O1</text>
<text xml:space="preserve" text-anchor="middle" x="986.05" y="-101" font-family="Helvetica,sans-Serif" font-size="14.00">R:E3 O2</text>
<text xml:space="preserve" text-anchor="middle" x="986.05" y="-84.2" font-family="Helvetica,sans-Serif" font-size="14.00">P:R</text>
</g>
<!-- L:E0 O3\nR:E3 O0\nP:L&#45;&gt;L:E0 O1\nR:E3 O2\nP:R -->
<g id="edge23" class="edge">
<title>L:E0 O3\nR:E3 O0\nP:L-&gt;L:E0 O1\nR:E3 O2\nP:R</title>
<path fill="none" stroke="black" d="M915.6,-98.81C923.21,-98.49 931.39,-98.38 939.38,-98.49"/>
<polygon fill="black" stroke="black" points="939.24,-101.99 949.33,-98.77 939.43,-94.99 939.24,-101.99"/>
</g>
<!-- L:E0 O1\nR:E3 O2\nP:R&#45;&gt;L:E0 O3\nR:E3 O0\nP:L -->
<g id="edge26" class="edge">
<title>L:E0 O1\nR:E3 O2\nP:R-&gt;L:E0 O3\nR:E3 O0\nP:L</title>
<path fill="none" stroke="black" d="M950.85,-111.59C943.24,-111.91 935.06,-112.02 927.07,-111.91"/>
<polygon fill="black" stroke="black" points="927.21,-108.41 917.11,-111.63 927.01,-115.41 927.21,-108.41"/>
</g>
<!-- L:E1 O1\nR:E2 O2\nP:L -->
<g id="node13" class="node">
<title>L:E1 O1\nR:E2 O2\nP:L</title>
<path fill="none" stroke="black" d="M1325.96,-167.4C1325.96,-167.4 1280.27,-167.4 1280.27,-167.4 1274.27,-167.4 1268.27,-161.4 1268.27,-155.4 1268.27,-155.4 1268.27,-121 1268.27,-121 1268.27,-115 1274.27,-109 1280.27,-109 1280.27,-109 1325.96,-109 1325.96,-109 1331.96,-109 1337.96,-115 1337.96,-121 1337.96,-121 1337.96,-155.4 1337.96,-155.4 1337.96,-161.4 1331.96,-167.4 1325.96,-167.4"/>
<text xml:space="preserve" text-anchor="middle" x="1303.12" y="-150.8" font-family="Helvetica,sans-Serif" font-size="14.00">L:E1 O1</text>
<text xml:space="preserve" text-anchor="middle" x="1303.12" y="-134" font-family="Helvetica,sans-Serif" font-size="14.00">R:E2 O2</text>
<text xml:space="preserve" text-anchor="middle" x="1303.12" y="-117.2" font-family="Helvetica,sans-Serif" font-size="14.00">P:L</text>
</g>
<!-- L:E0 O1\nR:E3 O2\nP:R&#45;&gt;L:E1 O1\nR:E2 O2\nP:L -->
<g id="edge24" class="edge">
<title>L:E0 O1\nR:E3 O2\nP:R-&gt;L:E1 O1\nR:E2 O2\nP:L</title>
<path fill="none" stroke="black" d="M1021.37,-104.39C1078.42,-107.42 1192.81,-119.23 1256.55,-128.51"/>
<polygon fill="black" stroke="black" points="1255.94,-131.96 1266.35,-129.99 1256.98,-125.03 1255.94,-131.96"/>
</g>
<!-- L:E0 O2\nR:E3 O1\nP:L -->
<g id="node14" class="node">
<title>L:E0 O2\nR:E3 O1\nP:L</title>
<path fill="none" stroke="black" d="M1114.58,-101.4C1114.58,-101.4 1068.89,-101.4 1068.89,-101.4 1062.89,-101.4 1056.89,-95.4 1056.89,-89.4 1056.89,-89.4 1056.89,-55 1056.89,-55 1056.89,-49 1062.89,-43 1068.89,-43 1068.89,-43 1114.58,-43 1114.58,-43 1120.58,-43 1126.58,-49 1126.58,-55 1126.58,-55 1126.58,-89.4 1126.58,-89.4 1126.58,-95.4 1120.58,-101.4 1114.58,-101.4"/>
<text xml:space="preserve" text-anchor="middle" x="1091.74" y="-84.8" font-family="Helvetica,sans-Serif" font-size="14.00">L:E0 O2</text>
<text xml:space="preserve" text-anchor="middle" x="1091.74" y="-68" font-family="Helvetica,sans-Serif" font-size="14.00">R:E3 O1</text>
<text xml:space="preserve" text-anchor="middle" x="1091.74" y="-51.2" font-family="Helvetica,sans-Serif" font-size="14.00">P:L</text>
</g>
<!-- L:E0 O1\nR:E3 O2\nP:R&#45;&gt;L:E0 O2\nR:E3 O1\nP:L -->
<g id="edge25" class="edge">
<title>L:E0 O1\nR:E3 O2\nP:R-&gt;L:E0 O2\nR:E3 O1\nP:L</title>
<path fill="none" stroke="black" d="M1021.29,-87.91C1029.08,-85.1 1037.46,-82.33 1045.62,-79.86"/>
<polygon fill="black" stroke="black" points="1046.45,-83.26 1055.08,-77.12 1044.5,-76.54 1046.45,-83.26"/>
</g>
<!-- L:E1 O1\nR:E2 O2\nP:L&#45;&gt;L:E0 O1\nR:E3 O2\nP:R -->
<g id="edge27" class="edge">
<title>L:E1 O1\nR:E2 O2\nP:L-&gt;L:E0 O1\nR:E3 O2\nP:R</title>
<path fill="none" stroke="black" d="M1267.84,-139.01C1210.82,-135.99 1096.43,-124.18 1032.66,-114.9"/>
<polygon fill="black" stroke="black" points="1033.27,-111.45 1022.86,-113.42 1032.23,-118.37 1033.27,-111.45"/>
</g>
<!-- L:E0 O0\nR:E3 O3\nP:R -->
<g id="node15" class="node">
<title>L:E0 O0\nR:E3 O3\nP:R</title>
<path fill="none" stroke="black" d="M1220.27,-101.4C1220.27,-101.4 1174.58,-101.4 1174.58,-101.4 1168.58,-101.4 1162.58,-95.4 1162.58,-89.4 1162.58,-89.4 1162.58,-55 1162.58,-55 1162.58,-49 1168.58,-43 1174.58,-43 1174.58,-43 1220.27,-43 1220.27,-43 1226.27,-43 1232.27,-49 1232.27,-55 1232.27,-55 1232.27,-89.4 1232.27,-89.4 1232.27,-95.4 1226.27,-101.4 1220.27,-101.4"/>
<text xml:space="preserve" text-anchor="middle" x="1197.43" y="-84.8" font-family="Helvetica,sans-Serif" font-size="14.00">L:E0 O0</text>
<text xml:space="preserve" text-anchor="middle" x="1197.43" y="-68" font-family="Helvetica,sans-Serif" font-size="14.00">R:E3 O3</text>
<text xml:space="preserve" text-anchor="middle" x="1197.43" y="-51.2" font-family="Helvetica,sans-Serif" font-size="14.00">P:R</text>
</g>
<!-- L:E1 O1\nR:E2 O2\nP:L&#45;&gt;L:E0 O0\nR:E3 O3\nP:R -->
<g id="edge28" class="edge">
<title>L:E1 O1\nR:E2 O2\nP:L-&gt;L:E0 O0\nR:E3 O3\nP:R</title>
<path fill="none" stroke="black" d="M1267.91,-122.82C1259.69,-117.93 1250.79,-112.36 1242.19,-106.73"/>
<polygon fill="black" stroke="black" points="1244.19,-103.86 1233.93,-101.22 1240.31,-109.68 1244.19,-103.86"/>
</g>
<!-- L:E0 O2\nR:E3 O1\nP:L&#45;&gt;L:E0 O1\nR:E3 O2\nP:R -->
<g id="edge29" class="edge">
<title>L:E0 O2\nR:E3 O1\nP:L-&gt;L:E0 O1\nR:E3 O2\nP:R</title>
<path fill="none" stroke="black" d="M1056.54,-89.48C1048.75,-92.28 1040.36,-95.06 1032.2,-97.53"/>
<polygon fill="black" stroke="black" points="1031.37,-94.13 1022.74,-100.27 1033.32,-100.85 1031.37,-94.13"/>
</g>
<!-- L:E0 O2\nR:E3 O1\nP:L&#45;&gt;L:E0 O0\nR:E3 O3\nP:R -->
<g id="edge30" class="edge">
<title>L:E0 O2\nR:E3 O1\nP:L-&gt;L:E0 O0\nR:E3 O3\nP:R</title>
<path fill="none" stroke="black" d="M1126.98,-65.81C1134.59,-65.49 1142.77,-65.38 1150.76,-65.49"/>
<polygon fill="black" stroke="black" points="1150.62,-68.99 1160.71,-65.77 1150.81,-61.99 1150.62,-68.99"/>
</g>
<!-- L:E0 O0\nR:E3 O3\nP:R&#45;&gt;L:E1 O1\nR:E2 O2\nP:L -->
<g id="edge33" class="edge">
<title>L:E0 O0\nR:E3 O3\nP:R-&gt;L:E1 O1\nR:E2 O2\nP:L</title>
<path fill="none" stroke="black" d="M1232.67,-87.6C1240.9,-92.49 1249.8,-98.06 1258.39,-103.69"/>
<polygon fill="black" stroke="black" points="1256.39,-106.57 1266.66,-109.2 1260.28,-100.74 1256.39,-106.57"/>
</g>
<!-- L:E0 O0\nR:E3 O3\nP:R&#45;&gt;L:E0 O2\nR:E3 O1\nP:L -->
<g id="edge32" class="edge">
<title>L:E0 O0\nR:E3 O3\nP:R-&gt;L:E0 O2\nR:E3 O1\nP:L</title>
<path fill="none" stroke="black" d="M1162.23,-78.59C1154.62,-78.91 1146.43,-79.02 1138.45,-78.91"/>
<polygon fill="black" stroke="black" points="1138.58,-75.41 1128.49,-78.63 1138.39,-82.41 1138.58,-75.41"/>
</g>
<!-- L:E0 O1\nR:E3 O2\nP:L -->
<g id="node16" class="node">
<title>L:E0 O1\nR:E3 O2\nP:L</title>
<path fill="none" stroke="black" d="M1325.96,-91.4C1325.96,-91.4 1280.27,-91.4 1280.27,-91.4 1274.27,-91.4 1268.27,-85.4 1268.27,-79.4 1268.27,-79.4 1268.27,-45 1268.27,-45 1268.27,-39 1274.27,-33 1280.27,-33 1280.27,-33 1325.96,-33 1325.96,-33 1331.96,-33 1337.96,-39 1337.96,-45 1337.96,-45 1337.96,-79.4 1337.96,-79.4 1337.96,-85.4 1331.96,-91.4 1325.96,-91.4"/>
<text xml:space="preserve" text-anchor="middle" x="1303.12" y="-74.8" font-family="Helvetica,sans-Serif" font-size="14.00">L:E0 O1</text>
<text xml:space="preserve" text-anchor="middle" x="1303.12" y="-58" font-family="Helvetica,sans-Serif" font-size="14.00">R:E3 O2</text>
<text xml:space="preserve" text-anchor="middle" x="1303.12" y="-41.2" font-family="Helvetica,sans-Serif" font-size="14.00">P:L</text>
</g>
<!-- L:E0 O0\nR:E3 O3\nP:R&#45;&gt;L:E0 O1\nR:E3 O2\nP:L -->
<g id="edge31" class="edge">
<title>L:E0 O0\nR:E3 O3\nP:R-&gt;L:E0 O1\nR:E3 O2\nP:L</title>
<path fill="none" stroke="black" d="M1232.67,-62.51C1240.28,-61.45 1248.46,-60.56 1256.45,-59.9"/>
<polygon fill="black" stroke="black" points="1256.67,-63.39 1266.4,-59.21 1256.19,-56.41 1256.67,-63.39"/>
</g>
<!-- L:E0 O1\nR:E3 O2\nP:L&#45;&gt;L:E0 O0\nR:E3 O3\nP:R -->
<g id="edge34" class="edge">
<title>L:E0 O1\nR:E3 O2\nP:L-&gt;L:E0 O0\nR:E3 O3\nP:R</title>
<path fill="none" stroke="black" d="M1267.91,-71.89C1260.31,-72.94 1252.12,-73.84 1244.14,-74.5"/>
<polygon fill="black" stroke="black" points="1243.91,-71.01 1234.18,-75.19 1244.39,-77.99 1243.91,-71.01"/>
</g>
</g>
</svg>