<svg width="576pt" height="179pt" viewBox="0.00 0.00 576.00 179.00" xmlns="http://www.w3.org/2000/svg" xmlns:xlink="http://www.w3.org/1999/xlink">
<g id="graph0" class="graph" transform="scale(0.528828 0.528828) rotate(0) translate(4 335.21)">
<title>DFA</title>
<polygon fill="white" stroke="none" points="-4,4 -4,-335.21 1085.2,-335.21 1085.2,4 -4,4"/>
<!-- q0 -->
<g id="node1" class="node">
<title>q0</title>
<ellipse fill="none" stroke="black" cx="47.78" cy="-47.78" rx="47.78" ry="47.78"/>
<text xml:space="preserve" text-anchor="middle" x="47.78" y="-43.58" font-family="Times,serif" font-size="14.00">q0 (Start)</text>
</g>
<!-- q1 -->
<g id="node2" class="node">
<title>q1</title>
<ellipse fill="none" stroke="black" cx="387.84" cy="-132.78" rx="20.69" ry="20.69"/>
<text xml:space="preserve" text-anchor="middle" x="387.84" y="-128.58" font-family="Times,serif" font-size="14.00">q1</text>
</g>
<!-- q0&#45;&gt;q1 -->
<g id="edge1" class="edge">
<title>q0-&gt;q1</title>
<path fill="none" stroke="black" d="M94.37,-59.24C164.49,-76.87 296.93,-110.17 356.48,-125.14"/>
<polygon fill="black" stroke="black" points="355.36,-128.47 365.91,-127.52 357.07,-121.68 355.36,-128.47"/>
<text xml:space="preserve" text-anchor="middle" x="231.35" y="-126.45" font-family="Times,serif" font-size="14.00">A_start  (V,v,p,P oder anderer Buchstabe)</text>
</g>
<!-- q_reject -->
<g id="node5" class="node">
<title>q_reject</title>
<ellipse fill="lightgrey" stroke="black" cx="1035.07" cy="-189.78" rx="42.13" ry="42.13"/>
<ellipse fill="none" stroke="black" cx="1035.07" cy="-189.78" rx="46.13" ry="46.13"/>
<text xml:space="preserve" text-anchor="middle" x="1035.07" y="-185.58" font-family="Times,serif" font-size="14.00">q_reject</text>
</g>
<!-- q0&#45;&gt;q_reject -->
<g id="edge2" class="edge">
<title>q0-&gt;q_reject</title>
<path fill="none" stroke="black" d="M95.78,-44.15C161.05,-39.43 282.84,-31.78 386.84,-31.78 386.84,-31.78 386.84,-31.78 793.56,-31.78 877.04,-31.78 954.01,-99.1 997.4,-145.85"/>
<polygon fill="black" stroke="black" points="994.77,-148.16 1004.09,-153.2 999.95,-143.45 994.77,-148.16"/>
<text xml:space="preserve" text-anchor="middle" x="573.82" y="-35.98" font-family="Times,serif" font-size="14.00">alles andere</text>
</g>
<!-- q2 -->
<g id="node3" class="node">
<title>q2</title>
<ellipse fill="none" stroke="black" cx="573.82" cy="-180.78" rx="56.88" ry="56.88"/>
<ellipse fill="none" stroke="black" cx="573.82" cy="-180.78" rx="60.88" ry="60.88"/>
<text xml:space="preserve" text-anchor="middle" x="573.82" y="-176.58" font-family="Times,serif" font-size="14.00">q2 (Accept)</text>
</g>
<!-- q1&#45;&gt;q2 -->
<g id="edge3" class="edge">
<title>q1-&gt;q2</title>
<path fill="none" stroke="black" d="M408.18,-137.82C430.83,-143.73 469.59,-153.85 503.82,-162.78"/>
<polygon fill="black" stroke="black" points="502.73,-166.11 513.29,-165.25 504.49,-159.33 502.73,-166.11"/>
<text xml:space="preserve" text-anchor="middle" x="460.74" y="-163.85" font-family="Times,serif" font-size="14.00">[a-zA-Z0-9]</text>
</g>
<!-- q3 -->
<g id="node4" class="node">
<title>q3</title>
<ellipse fill="none" stroke="black" cx="792.56" cy="-121.78" rx="20.69" ry="20.69"/>
<text xml:space="preserve" text-anchor="middle" x="792.56" y="-117.58" font-family="Times,serif" font-size="14.00">q3</text>
</g>
<!-- q1&#45;&gt;q3 -->
<g id="edge4" class="edge">
<title>q1-&gt;q3</title>
<path fill="none" stroke="black" d="M407.34,-125.05C431.23,-115.52 474.33,-99.87 512.94,-93.98 602.77,-80.26 709.98,-101.4 761.28,-113.81"/>
<polygon fill="black" stroke="black" points="760.2,-117.14 770.75,-116.16 761.89,-110.35 760.2,-117.14"/>
<text xml:space="preserve" text-anchor="middle" x="573.82" y="-98.18" font-family="Times,serif" font-size="14.00">_</text>
</g>
<!-- q1&#45;&gt;q_reject -->
<g id="edge5" class="edge">
<title>q1-&gt;q_reject</title>
<path fill="none" stroke="black" d="M397.23,-151.7C413.65,-186.07 453.71,-257.81 512.94,-285.78 673.87,-361.76 889.16,-268.09 984.76,-217.78"/>
<polygon fill="black" stroke="black" points="986.21,-220.97 993.39,-213.18 982.92,-214.79 986.21,-220.97"/>
<text xml:space="preserve" text-anchor="middle" x="686.9" y="-318.61" font-family="Times,serif" font-size="14.00">sonstiges</text>
</g>
<!-- q2&#45;&gt;q2 -->
<g id="edge6" class="edge">
<title>q2-&gt;q2</title>
<path fill="none" stroke="black" d="M553.3,-238.56C555.39,-250.81 562.23,-259.66 573.82,-259.66 581.61,-259.66 587.26,-255.67 590.75,-249.33"/>
<polygon fill="black" stroke="black" points="594.02,-250.59 593.86,-240 587.38,-248.38 594.02,-250.59"/>
<text xml:space="preserve" text-anchor="middle" x="573.82" y="-263.86" font-family="Times,serif" font-size="14.00">[a-zA-Z0-9]</text>
</g>
<!-- q2&#45;&gt;q3 -->
<g id="edge7" class="edge">
<title>q2-&gt;q3</title>
<path fill="none" stroke="black" d="M625.35,-147.7C634.19,-143.1 643.5,-138.95 652.7,-135.98 688.42,-124.46 731.75,-121.68 760.4,-121.28"/>
<polygon fill="black" stroke="black" points="760.22,-124.78 770.2,-121.25 760.19,-117.78 760.22,-124.78"/>
<text xml:space="preserve" text-anchor="middle" x="686.9" y="-140.18" font-family="Times,serif" font-size="14.00">_</text>
</g>
<!-- q2&#45;&gt;q_reject -->
<g id="edge10" class="edge">
<title>q2-&gt;q_reject</title>
<path fill="none" stroke="black" d="M634.72,-188.32C640.79,-188.9 646.86,-189.4 652.7,-189.78 793.85,-198.91 829.53,-196.14 970.93,-192.78 972.98,-192.73 975.07,-192.67 977.18,-192.61"/>
<polygon fill="black" stroke="black" points="977.18,-196.11 987.04,-192.25 976.92,-189.11 977.18,-196.11"/>
<text xml:space="preserve" text-anchor="middle" x="792.56" y="-200.16" font-family="Times,serif" font-size="14.00">ungültiges Zeichen</text>
</g>
<!-- q3&#45;&gt;q2 -->
<g id="edge8" class="edge">
<title>q3-&gt;q2</title>
<path fill="none" stroke="black" d="M773.75,-130.96C759.75,-137.84 739.61,-147.02 721.1,-152.78 696.91,-160.31 669.81,-166.18 645.57,-170.55"/>
<polygon fill="black" stroke="black" points="645.03,-167.09 635.78,-172.26 646.23,-173.99 645.03,-167.09"/>
<text xml:space="preserve" text-anchor="middle" x="686.9" y="-173.23" font-family="Times,serif" font-size="14.00">[a-zA-Z0-9]</text>
</g>
<!-- q3&#45;&gt;q3 -->
<g id="edge9" class="edge">
<title>q3-&gt;q3</title>
<path fill="none" stroke="black" d="M776.28,-135.26C768.35,-147.43 773.78,-160.47 792.56,-160.47 805.77,-160.47 812.37,-154.03 812.37,-145.97"/>
<polygon fill="black" stroke="black" points="815.77,-145.1 809.32,-136.7 809.12,-147.29 815.77,-145.1"/>
<text xml:space="preserve" text-anchor="middle" x="792.56" y="-164.67" font-family="Times,serif" font-size="14.00">_</text>
</g>
<!-- q3&#45;&gt;q_reject -->
<g id="edge11" class="edge">
<title>q3-&gt;q_reject</title>
<path fill="none" stroke="black" d="M812.84,-127.23C848.53,-137.32 926.11,-159.26 979.23,-174.27"/>
<polygon fill="black" stroke="black" points="978.13,-177.6 988.71,-176.95 980.04,-170.86 978.13,-177.6"/>
<text xml:space="preserve" text-anchor="middle" x="917.48" y="-175.74" font-family="Times,serif" font-size="14.00">ungültiges Zeichen</text>
</g>
</g>
</svg>